<svg xmlns="http://www.w3.org/2000/svg" viewBox="0 0 512 512" width="512" height="512">
  <defs>
    <!-- Background Gradient: Deep Midnight Navy matching #0c1425 -->
    <linearGradient id="bgGrad" x1="0%" y1="0%" x2="100%" y2="100%">
      <stop offset="0%" stop-color="#111d38"/>
      <stop offset="100%" stop-color="#080e1c"/>
    </linearGradient>

    <!-- Badge Gradient: Royal Transit Blue with sleek depth -->
    <linearGradient id="badgeGrad" x1="0%" y1="0%" x2="0%" y2="100%">
      <stop offset="0%" stop-color="#2563eb"/>
      <stop offset="100%" stop-color="#1d4ed8"/>
    </linearGradient>

    <!-- Glass Windshield Gradient -->
    <linearGradient id="glassGrad" x1="0%" y1="0%" x2="0%" y2="100%">
      <stop offset="0%" stop-color="#1e293b"/>
      <stop offset="100%" stop-color="#0f172a"/>
    </linearGradient>

    <!-- Soft Depth Shadow -->
    <filter id="badgeShadow" x="-30%" y="-30%" width="160%" height="160%">
      <feDropShadow dx="0" dy="10" stdDeviation="18" flood-color="#000000" flood-opacity="0.5"/>
    </filter>
  </defs>

  <!-- Full-bleed background: 100% of 512x512 canvas so masks never clip -->
  <rect width="512" height="512" fill="url(#bgGrad)"/>

  <!-- Centered Circular Badge inside Safe Zone (r=138px -> diameter 276px, well inside the 409px circular mask) -->
  <circle cx="256" cy="256" r="140" fill="url(#badgeGrad)" filter="url(#badgeShadow)"/>
  <circle cx="256" cy="256" r="139" fill="none" stroke="#60a5fa" stroke-width="2.5" stroke-opacity="0.7"/>

  <!-- Live Pulse Dot (Top Right of Badge) -->
  <circle cx="348" cy="164" r="11" fill="#22c55e" stroke="#0c1425" stroke-width="3.5"/>

  <!-- Modern Bus Graphic inside Badge (Centered around 256, 256) -->
  <g transform="translate(256, 256)">
    <!-- Bus Main Outer Body -->
    <rect x="-70" y="-62" width="140" height="120" rx="24" fill="#ffffff"/>

    <!-- Bus Windshield Glass -->
    <rect x="-56" y="-48" width="112" height="44" rx="10" fill="url(#glassGrad)"/>

    <!-- Destination LED matrix / line sign in windshield -->
    <rect x="-38" y="-42" width="76" height="11" rx="3" fill="#f59e0b"/>
    <text x="0" y="-33.5" font-family="system-ui, -apple-system, sans-serif" font-weight="900" font-size="8" fill="#000000" text-anchor="middle" letter-spacing="1">SORIA</text>

    <!-- Bus Grille Accent Line -->
    <rect x="-42" y="10" width="84" height="6" rx="3" fill="#cbd5e1"/>

    <!-- Twin Amber Headlights with bright center -->
    <circle cx="-46" cy="28" r="10" fill="#fbbf24" stroke="#f59e0b" stroke-width="1.5"/>
    <circle cx="-46" cy="28" r="4" fill="#ffffff"/>

    <circle cx="46" cy="28" r="10" fill="#fbbf24" stroke="#f59e0b" stroke-width="1.5"/>
    <circle cx="46" cy="28" r="4" fill="#ffffff"/>

    <!-- License Plate / Logo emblem in bumper -->
    <rect x="-18" y="24" width="36" height="10" rx="2" fill="#1e293b"/>
    <text x="0" y="31.5" font-family="system-ui, -apple-system, sans-serif" font-weight="bold" font-size="6.5" fill="#38bdf8" text-anchor="middle">TUS</text>

    <!-- Side Mirrors -->
    <rect x="-78" y="-36" width="8" height="18" rx="3" fill="#ffffff"/>
    <rect x="70" y="-36" width="8" height="18" rx="3" fill="#ffffff"/>

    <!-- Bus Wheels (bottom) -->
    <rect x="-56" y="54" width="24" height="14" rx="4" fill="#0f172a"/>
    <rect x="32" y="54" width="24" height="14" rx="4" fill="#0f172a"/>
  </g>
</svg>